<svg xmlns="http://www.w3.org/2000/svg" viewBox="0 0 800 500" width="100%" height="100%">
  <defs>
    <linearGradient id="romeSky" x1="0%" y1="0%" x2="0%" y2="100%">
      <stop offset="0%" stop-color="#E15F41"/>
      <stop offset="50%" stop-color="#F19066"/>
      <stop offset="100%" stop-color="#F7D794"/>
    </linearGradient>
  </defs>
  <rect width="800" height="500" fill="url(#romeSky)"/>
  <circle cx="400" cy="180" r="100" fill="#FFF275" opacity="0.6"/>
  <!-- Colosseum Structure -->
  <g fill="#574B90">
    <path d="M120 400 L120 250 C120 220 220 200 400 200 C580 200 680 220 680 250 L680 400 Z"/>
    <!-- Colosseum Arches Top Tier -->
    <g fill="#F7D794">
      <rect x="160" y="240" width="22" height="35" rx="10"/>
      <rect x="210" y="240" width="22" height="35" rx="10"/>
      <rect x="260" y="240" width="22" height="35" rx="10"/>
      <rect x="310" y="240" width="22" height="35" rx="10"/>
      <rect x="360" y="240" width="22" height="35" rx="10"/>
      <rect x="410" y="240" width="22" height="35" rx="10"/>
      <rect x="460" y="240" width="22" height="35" rx="10"/>
      <rect x="510" y="240" width="22" height="35" rx="10"/>
      <rect x="560" y="240" width="22" height="35" rx="10"/>
      <rect x="610" y="240" width="22" height="35" rx="10"/>
    </g>
    <!-- Colosseum Arches Bottom Tier -->
    <g fill="#F7D794">
      <rect x="160" y="300" width="28" height="55" rx="14"/>
      <rect x="220" y="300" width="28" height="55" rx="14"/>
      <rect x="280" y="300" width="28" height="55" rx="14"/>
      <rect x="340" y="300" width="28" height="55" rx="14"/>
      <rect x="400" y="300" width="28" height="55" rx="14"/>
      <rect x="460" y="300" width="28" height="55" rx="14"/>
      <rect x="520" y="300" width="28" height="55" rx="14"/>
      <rect x="580" y="300" width="28" height="55" rx="14"/>
    </g>
  </g>
  <!-- Italian Cypress Trees -->
  <polygon points="80,410 70,280 90,280" fill="#2C3A29"/>
  <polygon points="105,410 98,310 112,310" fill="#1B241A"/>
  <polygon points="710,410 700,270 720,270" fill="#2C3A29"/>
  <rect y="400" width="800" height="100" fill="#303952"/>
</svg>